<svg viewBox="0 0 24 24" aria-hidden="true"><g><path d="M14.5 4.51C14.5 5.88 13.382 7 12 7c-1.373 0-2.5-1.118-2.5-2.49C9.5 3.126 10.627 2 12 2c1.382 0 2.5 1.127 2.5 2.51zm0 15c0 1.37-1.118 2.49-2.5 2.49-1.373 0-2.5-1.118-2.5-2.49C9.5 18.126 10.627 17 12 17c1.382 0 2.5 1.127 2.5 2.51zm8.5-7.5c0 2.058-1.682 3.74-3.75 3.74s-3.75-1.682-3.75-3.74c0-2.078 1.682-3.76 3.75-3.76S23 9.932 23 12.01zm-14.5 0c0 2.058-1.682 3.74-3.75 3.74S1 14.068 1 12.01c0-2.078 1.682-3.76 3.75-3.76S8.5 9.932 8.5 12.01z"></path></g></svg>

